# xmcd
#
# Track frame offsets: 
#        150
#        23800
#        56133
#        84432
#        105414
#        119294
#        144840
#        167849
#        193877
#        215480
#        246997
#
# Disc length: 3624 seconds
#
# Revision: 1
# Processed by: cddbd v1.5.2PL0 Copyright (c) Steve Scherf et al.
# Submitted via: ExactAudioCopyFreeDBPlugin 1.0
#
DISCID=970e260b
DTITLE=Various Artist - Kiss:  Essential Late Night Jazz
DYEAR=2006
DGENRE=Jazz
TTITLE0=Sonny Stitt - At Last
TTITLE1=Nat Adderley - I Can't Give You Anything But Love
TTITLE2=Kenny Burrell - My One and Only Love
TTITLE3=Milt Jackson - Can't Help Lovin' That Man
TTITLE4=Dizzy Gillespie - Star Dust
TTITLE5=Hank Jones - Little Girl Blue
TTITLE6=Larry Coryell - Sophisticated Lady
TTITLE7=Donald Byrd - That's All There is to Love
TTITLE8=Pat Martino - Days of Wine And Roses
TTITLE9=Sam Jones - You Are the Sunshine of My Life
TTITLE10=Shirley Scott and Buck Hill - More Than You Know
EXTD=YEAR: 2006
EXTT0=
EXTT1=
EXTT2=
EXTT3=
EXTT4=
EXTT5=
EXTT6=
EXTT7=
EXTT8=
EXTT9=
EXTT10=
PLAYORDER=
